<?xml version="1.0" encoding="UTF-8"?>
<svg version="1.1" viewBox="0 0 2048 2048" width="1280" height="1280" xmlns="http://www.w3.org/2000/svg">
<path transform="translate(1862)" d="m0 0h57l1 2 19 5 13 5 16 8 14 9 11 9 10 9 10 11 10 14 8 14 6 13 7 20 2 9h2v60l-2 1-5 19-7 18-8 15-8 12-8 10-12 13-11 9-13 9-16 9-20 8-20 5-12 2-12 1h-12l-18-2-19-4-22-8-17-9-7-4-4 2-70 70-1 2h-2v2h-2v2h-2v2h-2v2h-2v2h-2v2h-2v2h-2v2h-2v2h-2v2h-2v2h-2v2h-2v2h-2v2h-2v2h-2v2h-2v2h-2l-2 4h-2l-2 4h-2l-2 4h-2l-2 4h-2l-2 4h-2l-2 4h-2l-2 4h-2l-2 4h-2l-2 4h-2l-2 4h-2l-2 4-315 315-7 8 2 6 9 16 7 17 6 24 2 16v23l-3 21-6 21-7 16-6 12-8 12-11 13-7 8-4 2v2l-17 13-15 9-19 9-21 6-16 3-10 1h-21l-27-4-21-7-21-10-16-11-14-12-9-9-11-14-9-14-10-21-5-15-5-25v-34l3-18 6-21 8-18 9-15-2-4-206-206-5 1-23 12-21 7-18 4-23 2-19-1-22-4-21-7-16-8-12-7-7 6-369 369 1 5 8 14 7 16 6 20 3 17 1 10v18l-3 22-5 19-6 15-10 19-12 17-15 16-12 10-15 10-17 9-16 6-21 5-12 2h-34l-25-5-17-6-19-9-15-10-10-8-12-11-9-11-9-12-9-15-8-19-5-17-2-9-1-3v-48l8-29 6-15 10-18 12-16 2-3h2l2-4 12-12 13-10 18-11 17-8 20-6 16-3 13-1h17l18 2 21 5 20 8 17 9 2 2 5 1 2-4 371-371-1-5-9-16-8-19-5-19-3-21v-21l2-17 4-17 8-22 8-15 11-16 9-11 13-13 13-10 16-10 17-8 15-5 18-4 21-2h10l21 2 21 5 16 6 16 8 11 7 13 10 13 12 11 13 12 18 10 21 6 19 3 15 2 25-2 24-5 21-7 19-11 21-2 4 6 6v2l4 2 140 140v2l4 2 43 43v2l4 2 8 8 5-2 16-9 20-8 20-5 16-2h27l21 3 20 6 18 8 16 9 4-2 9-9 5-6 8-7 87-87 5-6 6-5 3-4h2l2-4h2l2-4h2l2-4 285-285 1-2h2v-2h2v-2h2v-2h2v-2h2v-2h2v-2h2v-2h2v-2h2l2-4 26-26 4-3-1-6-11-21-7-19-4-17-2-14v-26l3-20 6-22 9-20 9-15 10-13 9-10 9-9 13-10 16-10 17-8 15-5 16-4zm21 59-16 2-16 5-14 7-12 9-5 4v2l-4 2-8 10-8 13-5 11-4 14-2 13v17l3 18 6 15 5 10 8 11 3 4h2l2 4 9 8 14 9 16 7 17 4 9 1h11l16-2 18-6 15-8 13-10 10-10 7-10 6-10 6-17 3-14v-26l-3-15-5-13-6-12-9-12-5-6-8-7-15-10-16-7-16-4-8-1zm-1129 266-17 2-17 5-17 9-10 8-13 13-10 15-7 16-4 16-1 9v15l2 14 6 18 6 12 8 11 9 10 14 11 17 9 16 5 16 2h14l20-4 16-6 13-8 10-8 11-11 9-14 6-12 5-17 1-6v-28l-4-17-5-12-7-13-8-10-5-6-14-11-14-8-14-5-12-3zm425 433-16 3-16 6-12 7-15 12v2l-3 1-10 13-7 12-6 16-3 14v28l4 16 6 15 8 13 11 13 4 2v2l14 10 16 8 13 4 12 2h23l18-4 15-6 16-10 13-12 9-11 9-16 5-14 3-18v-16l-2-14-5-16-8-16-9-12-13-13-14-9-15-7-14-4-8-1zm-1029 166-17 3-17 6-13 8-9 7-5 4-7 8-6 8-8 14-6 17-3 19v13l2 14 5 16 8 16 9 12 13 13 14 9 12 6 13 4 10 2h27l18-4 16-7 14-9 12-11 8-9 9-15 6-16 3-13 1-10v-10l-3-20-6-17-7-13-10-13-8-8-14-10-17-8-13-4-13-2z"/>
<path transform="translate(1686,605)" d="m0 0h362v1443h-362l-1-35v-1310zm60 60v1324h242l1-11-1-1313z"/>
<path transform="translate(562,1167)" d="m0 0h361l1 1v880h-362l-1-4v-876zm60 60-1 1v761h243v-762z"/>
<path transform="translate(1126,1210)" d="m0 0h321l39 1v837h-362v-837zm58 60-1 49v670h242l1-1v-718z"/>
<path transform="translate(0,1383)" d="m0 0h361l1 2v663h-362zm59 60v546h242l1-2v-544z"/>
</svg>
